<svg width="171" height="43" viewBox="0 0 171 43" fill="none" xmlns="http://www.w3.org/2000/svg">
<path fill-rule="evenodd" clip-rule="evenodd" d="M158.443 27.2233H164.59L170.345 38.7573H166.156L165.06 36.8155H157.934L156.838 38.7573H152.649L158.443 27.2233ZM128.416 29.9417V30.7961V35.9223V38.7573H132.018V35.9223V28.4272V27.2233H126.146L119.999 35.767C119.96 35.8835 119.921 35.9612 119.843 36.0777V35.1845V31.068V27.2233H116.241V31.068V37.9029V38.7573H122.113L128.26 30.2136C128.338 30.1359 128.377 30.0194 128.416 29.9417ZM161.81 29.8252H161.262L159.305 33.8252H163.728L161.81 29.8252ZM136.05 27.2233H139.652V31.2621H141.531L145.603 27.2233H150.535L144.702 32.7379L151.279 38.7961H146.072L141.531 34.2913H139.652V38.7961H136.05V27.2233ZM97.9974 27.2233H101.599V31.2621H109.351V27.2233H112.952V38.7573H109.351V34.2524H101.599V38.7573H97.9974V27.2233ZM79.8715 27.1845L85.1957 32.8544L79.8715 38.7573H84.6868L88.2102 34.8738L91.7336 38.7573H96.5489L91.2247 32.8544L96.5489 27.1845H91.577L88.2102 30.9126L84.8434 27.1845H79.8715ZM65.3864 38.7573V27.1845H77.9532V29.9806H68.9881V31.6116H77.5617V34.4078H68.9881V36H77.9532V38.7961H65.3864V38.7573ZM49.3745 30.1748V27.1845H63.2332V30.1748H58.1047V38.7573H54.503V30.1748H49.3745Z" fill="#2A5275"/>
<path fill-rule="evenodd" clip-rule="evenodd" d="M149.674 10.0583V5.5534H170.384V10.0194H162.711V22.835H157.347V10.0194H149.674V10.0583ZM71.2587 5.63107V22.9126H76.6221V10.7961L83.6689 22.9126H88.0536L94.6306 10.7961V22.9126H99.3285L101.403 15.4563L99.6025 15.4175L101.677 5.63107H90.8723L86.2919 15.301H85.4698L80.8893 5.63107H71.2587ZM59.5923 18.9903C62.1762 18.9903 63.6638 18.9515 64.0553 18.8738C64.4468 18.7961 64.6817 18.4854 64.6817 17.9417C64.6817 17.2816 64.4076 16.8544 63.8204 16.699C63.2332 16.5437 61.8238 16.4272 59.5923 16.4272C55.1294 16.4272 52.3106 16.1165 51.1362 15.4563C49.9617 14.7961 49.3745 13.2039 49.3745 10.6796C49.3745 8.31068 50.1183 6.83495 51.6451 6.17476C52.8196 5.6699 55.4034 5.43689 59.4357 5.43689C63.0374 5.43689 65.3081 5.51456 66.2476 5.70874C68.0485 6.05825 69.1447 7.3398 69.497 9.59223H59.5532H59.4357C57.0085 9.59223 55.6383 9.63107 55.2468 9.70874C54.8553 9.78641 54.6987 10.1359 54.6987 10.6796C54.6987 11.2621 55.0119 11.6505 55.6383 11.8447C56.2647 12.0388 57.5566 12.1165 59.5532 12.1165C63.977 12.1165 66.7957 12.466 68.0876 13.165C69.3796 13.8641 70.0059 15.4563 70.0059 17.9417C70.0059 20.233 69.3013 21.7087 67.8527 22.3689C66.6 22.9126 63.8596 23.1845 59.514 23.1845C56.1864 23.1845 54.0332 23.1068 53.0545 22.9515C51.5276 22.7184 50.4706 22.2136 49.9225 21.3592C49.5702 20.8155 49.3353 20.0388 49.1787 18.9903H59.3966H59.5923ZM108.568 5.63107H117.963L126.576 22.8738H120.312L118.668 19.9612H108.059L106.414 22.8738H100.151L100.19 22.7961L107.315 12.9709L104.066 12.7767L108.568 5.63107ZM113.735 9.51456H112.913L110.016 15.4951H116.632L113.735 9.51456ZM127.281 5.5534H142.862C144.78 5.5534 146.151 5.90291 146.934 6.60194C147.795 7.3398 148.226 8.69903 148.226 10.6019C148.226 12.0777 148.03 13.2039 147.677 13.9029C147.325 14.6019 146.699 15.1456 145.798 15.4951C146.777 15.9223 147.403 16.3495 147.717 16.7379C148.03 17.165 148.186 17.9029 148.186 18.9903V22.8738H142.823V19.767C142.823 19.301 142.705 18.9515 142.471 18.6408C142.157 18.2524 141.688 18.0194 141.1 18.0194H132.644V22.835H127.281V5.5534ZM132.605 10.0583V13.5922H141.218C141.805 13.5922 142.236 13.4757 142.471 13.2039C142.705 12.9709 142.862 12.5049 142.862 11.8447C142.862 11.1845 142.745 10.7184 142.471 10.4466C142.197 10.1748 141.805 10.0583 141.218 10.0583H132.605Z" fill="#4878A6"/>
<path fill-rule="evenodd" clip-rule="evenodd" d="M3.13957 9.35922L9.95149 5.47573L19.1906 0.194174L28.4298 5.47573L37.6689 10.7573V16.8932L32.3055 13.8252L19.1906 6.29126L8.50298 12.4272L3.13957 9.35922ZM0.712341 13.5146V19.8058L19.5038 30.5631L24.7498 27.2621L0.712341 13.5146Z" fill="#4878A6"/>
<path fill-rule="evenodd" clip-rule="evenodd" d="M35.2417 33.2816L28.4298 37.165L19.1906 42.4466L9.95149 37.165L0.712341 31.8835V25.7476L6.07575 28.8155L19.1906 36.3107L29.8783 30.1748L35.2417 33.2816ZM23.6928 14.7961L19.3081 12.2719L14.1404 15.2233L17.4289 17.1262L36.2204 27.8835L37.7081 28.7379V22.7961L36.2204 21.9418L23.6928 14.7961Z" fill="#2A5275"/>
</svg>
